<svg width="125" height="392" viewBox="0 0 125 392" fill="none" xmlns="http://www.w3.org/2000/svg">
<path d="M-1.52588e-05 390.51H96.61V376.08H-1.52588e-05V390.51Z" fill="white"/>
<path d="M-1.52588e-05 369.86H96.61V366.19H-1.52588e-05V369.86Z" fill="white"/>
<path d="M-1.52588e-05 362.07H96.61V358.4H-1.52588e-05V362.07Z" fill="white"/>
<path d="M-1.52588e-05 356.97H96.61V347.92H-1.52588e-05V356.97Z" fill="white"/>
<path d="M-1.52588e-05 345.34H96.61V343.96H-1.52588e-05V345.34Z" fill="white"/>
<path d="M-1.52588e-05 235.29H96.61V233.91H-1.52588e-05V235.29Z" fill="white"/>
<path d="M-1.52588e-05 204.27H96.61V202.89H-1.52588e-05V204.27Z" fill="white"/>
<path d="M-1.52588e-05 169.42H96.61V168.04H-1.52588e-05V169.42Z" fill="white"/>
<path d="M-1.52588e-05 166.19H96.61V164.81H-1.52588e-05V166.19Z" fill="white"/>
<path d="M-1.52588e-05 338.7H96.61V335.03H-1.52588e-05V338.7Z" fill="white"/>
<path d="M-1.52588e-05 330.91H96.61V329.08H-1.52588e-05V330.91Z" fill="white"/>
<path d="M-1.52588e-05 327.19H96.61V325.36H-1.52588e-05V327.19Z" fill="white"/>
<path d="M-1.52588e-05 323.11H96.61V319.44H-1.52588e-05V323.11Z" fill="white"/>
<path d="M-1.52588e-05 317.57H96.61V309.4H-1.52588e-05V317.57Z" fill="white"/>
<path d="M-1.52588e-05 307.6H96.61V305.63H-1.52588e-05V307.6Z" fill="white"/>
<path d="M-1.52588e-05 299.74H96.61V296.07H-1.52588e-05V299.74Z" fill="white"/>
<path d="M-1.52588e-05 294.08H96.61V290.41H-1.52588e-05V294.08Z" fill="white"/>
<path d="M-1.52588e-05 286.01H96.61V278.63H-1.52588e-05V286.01Z" fill="white"/>
<path d="M-1.52588e-05 276.37H96.61V272.7H-1.52588e-05V276.37Z" fill="white"/>
<path d="M-1.52588e-05 268.57H96.61V264.9H-1.52588e-05V268.57Z" fill="white"/>
<path d="M-1.52588e-05 258.12H96.61V254.45H-1.52588e-05V258.12Z" fill="white"/>
<path d="M-1.52588e-05 252.99H96.61V249.32H-1.52588e-05V252.99Z" fill="white"/>
<path d="M-1.52588e-05 245.2H96.61V241.53H-1.52588e-05V245.2Z" fill="white"/>
<path d="M-1.52588e-05 230.62H96.61V224.95H-1.52588e-05V230.62Z" fill="white"/>
<path d="M-1.52588e-05 221.83H96.61V218.16H-1.52588e-05V221.83Z" fill="white"/>
<path d="M-1.52588e-05 214.03H96.61V210.36H-1.52588e-05V214.03Z" fill="white"/>
<path d="M-1.52588e-05 200.23H96.61V193H-1.52588e-05V200.23Z" fill="white"/>
<path d="M-1.52588e-05 190.66H96.61V186.99H-1.52588e-05V190.66Z" fill="white"/>
<path d="M-1.52588e-05 182.87H96.61V179.2H-1.52588e-05V182.87Z" fill="white"/>
<path d="M-1.52588e-05 178.31H96.61V174.64H-1.52588e-05V178.31Z" fill="white"/>
<path d="M-1.52588e-05 159.49H96.61V155.82H-1.52588e-05V159.49Z" fill="white"/>
<path d="M-1.52588e-05 151.7H96.61V148.03H-1.52588e-05V151.7Z" fill="white"/>
<path d="M-1.52588e-05 143.98H96.61V142.01H-1.52588e-05V143.98Z" fill="white"/>
<path d="M-1.52588e-05 136.19H96.61V134.22H-1.52588e-05V136.19Z" fill="white"/>
<path d="M-1.52588e-05 129.37H96.61V123.62H-1.52588e-05V129.37Z" fill="white"/>
<path d="M-1.52588e-05 122.55H96.61V114.85H-1.52588e-05V122.55Z" fill="white"/>
<path d="M-1.52588e-05 104.96H96.61V101.29H-1.52588e-05V104.96Z" fill="white"/>
<path d="M-1.52588e-05 97.1599H96.61V93.49H-1.52588e-05V97.1599Z" fill="white"/>
<path d="M-1.52588e-05 87.5399H96.61V85.71H-1.52588e-05V87.5399Z" fill="white"/>
<path d="M-1.52588e-05 108.38H96.61V106.55H-1.52588e-05V108.38Z" fill="white"/>
<path d="M-1.52588e-05 68.7H96.61V66.87H-1.52588e-05V68.7Z" fill="white"/>
<path d="M-1.52588e-05 83.83H96.61V75.6599H-1.52588e-05V83.83Z" fill="white"/>
<path d="M-1.52588e-05 73.7899H96.61V71.96H-1.52588e-05V73.7899Z" fill="white"/>
<path d="M-1.52588e-05 58.21H96.61V54.5399H-1.52588e-05V58.21Z" fill="white"/>
<path d="M-1.52588e-05 50.4199H96.61V46.75H-1.52588e-05V50.4199Z" fill="white"/>
<path d="M-1.52588e-05 42.62H96.61V38.95H-1.52588e-05V42.62Z" fill="white"/>
<path d="M-1.52588e-05 34.0099H96.61V23.6399H-1.52588e-05V34.0099Z" fill="white"/>
<path d="M-1.52588e-05 19.25H96.61V15.58H-1.52588e-05V19.25Z" fill="white"/>
<path d="M0 11.46L123.74 11.46V7.78992L0 7.78992V11.46Z" fill="white"/>
<path d="M0 3.66992L123.74 3.66992V0L0 0V3.66992Z" fill="white"/>
<path d="M123.74 391.71H122.24L120.38 389.79C115.98 385.17 113.65 383.09 110.93 383.06C109.09 383.06 107.4 383.95 107.4 386.65C107.451 388.063 107.988 389.416 108.92 390.48L107.2 391.26C106.013 389.822 105.366 388.014 105.37 386.15C105.37 382.26 108.04 380.62 110.62 380.62C113.96 380.62 116.62 383.03 120.32 386.84L121.65 388.29H121.71V380.19H123.71L123.74 391.71Z" fill="white"/>
<path d="M120.93 366.03C121.65 364.818 122.042 363.439 122.07 362.03C122.07 358.89 120.07 357.92 118.57 357.95C116.04 357.95 114.96 360.26 114.96 362.62V363.98H113.12V362.62C113.12 360.84 112.2 358.62 110.06 358.62C108.62 358.62 107.34 359.53 107.34 361.79C107.378 363.085 107.795 364.34 108.54 365.4L106.76 366.04C105.843 364.633 105.36 362.989 105.37 361.31C105.37 357.76 107.48 356.14 109.68 356.14C111.54 356.14 113.12 357.26 113.93 359.48C114.101 358.37 114.662 357.358 115.513 356.625C116.363 355.892 117.447 355.486 118.57 355.48C121.46 355.48 123.99 357.73 123.99 362.07C124.009 363.714 123.588 365.333 122.77 366.76L120.93 366.03Z" fill="white"/>
<path d="M107.4 331.19C107.372 331.805 107.409 332.422 107.51 333.03C107.734 334.64 108.486 336.13 109.647 337.266C110.809 338.403 112.316 339.122 113.93 339.31V339.22C113.266 338.707 112.73 338.045 112.368 337.288C112.005 336.531 111.824 335.699 111.84 334.86C111.84 331.66 114.15 329.41 117.68 329.41C120.99 329.41 124.04 331.66 124.04 335.41C124.04 339.16 121.04 341.8 116.35 341.8C114.857 341.85 113.369 341.606 111.97 341.081C110.572 340.556 109.291 339.76 108.2 338.74C106.695 337.162 105.756 335.129 105.53 332.96C105.441 332.371 105.398 331.776 105.4 331.18L107.4 331.19ZM117.82 331.89C115.23 331.89 113.68 333.36 113.68 335.61C113.695 336.341 113.91 337.053 114.301 337.67C114.693 338.287 115.246 338.785 115.9 339.11C116.227 339.301 116.601 339.398 116.98 339.39C119.98 339.39 122.15 337.97 122.15 335.39C122.15 333.31 120.4 331.9 117.82 331.9V331.89Z" fill="white"/>
<path d="M119.15 316.64C116.87 316.64 115.26 315.28 114.32 313.05H114.23C113.916 313.865 113.37 314.571 112.659 315.079C111.948 315.588 111.103 315.876 110.23 315.91C107.36 315.91 105.42 313.5 105.42 310.33C105.42 306.83 107.61 305.07 109.86 305.07C110.785 305.088 111.682 305.384 112.437 305.919C113.191 306.454 113.767 307.203 114.09 308.07H114.17C115.06 305.82 116.65 304.43 118.84 304.43C121.98 304.43 124.09 307.12 124.09 310.57C124.04 314.36 121.79 316.64 119.15 316.64ZM119.04 306.91C116.85 306.91 115.79 308.44 115.09 310.91C115.71 313.02 117.09 314.16 118.82 314.16C119.292 314.176 119.761 314.092 120.198 313.913C120.634 313.734 121.028 313.465 121.353 313.123C121.678 312.781 121.927 312.374 122.083 311.928C122.24 311.483 122.3 311.01 122.26 310.54C122.26 308.33 120.9 306.91 119.04 306.91ZM110.04 313.64C111.85 313.64 112.82 312.28 113.37 310.19C113.197 309.437 112.783 308.761 112.191 308.265C111.599 307.769 110.861 307.479 110.09 307.44C109.688 307.42 109.287 307.486 108.913 307.634C108.539 307.783 108.201 308.009 107.922 308.3C107.643 308.59 107.43 308.936 107.297 309.316C107.164 309.695 107.114 310.099 107.15 310.5C107.112 310.898 107.158 311.3 107.285 311.679C107.412 312.058 107.616 312.407 107.885 312.703C108.155 312.998 108.483 313.234 108.849 313.396C109.215 313.557 109.61 313.64 110.01 313.64H110.04Z" fill="white"/>
<path d="M123.74 274.59H122.24L120.38 272.67C115.98 268.06 113.65 265.97 110.93 265.95C110.45 265.9 109.965 265.959 109.51 266.122C109.056 266.285 108.644 266.548 108.305 266.892C107.966 267.236 107.709 267.651 107.552 268.108C107.395 268.565 107.343 269.05 107.4 269.53C107.453 270.946 107.989 272.301 108.92 273.37L107.2 274.14C106.008 272.705 105.36 270.895 105.37 269.03C105.37 265.14 108.04 263.5 110.62 263.5C113.96 263.5 116.62 265.92 120.32 269.73L121.65 271.17H121.71V263.06H123.71L123.74 274.59Z" fill="white"/>
<path d="M120.93 248.91C121.65 247.698 122.043 246.319 122.07 244.91C122.07 241.77 120.07 240.79 118.57 240.82C116.04 240.82 114.96 243.13 114.96 245.49V246.85H113.12V245.49C113.12 243.71 112.2 241.49 110.06 241.49C108.62 241.49 107.34 242.41 107.34 244.66C107.378 245.955 107.795 247.21 108.54 248.27L106.76 248.91C105.843 247.507 105.36 245.866 105.37 244.19C105.37 240.63 107.48 239.02 109.68 239.02C110.654 239.039 111.595 239.374 112.361 239.975C113.128 240.575 113.678 241.409 113.93 242.35C114.101 241.24 114.662 240.228 115.513 239.495C116.363 238.762 117.447 238.356 118.57 238.35C121.46 238.35 123.99 240.6 123.99 244.94C124.01 246.587 123.589 248.21 122.77 249.64L120.93 248.91Z" fill="white"/>
<path d="M105.67 212.67H107.29L123.74 220.53V223.06L107.74 215.23H107.68V224.06H105.68L105.67 212.67Z" fill="white"/>
<path d="M119.15 199.52C116.87 199.52 115.26 198.16 114.32 195.94H114.23C113.918 196.758 113.373 197.466 112.662 197.977C111.951 198.487 111.105 198.777 110.23 198.81C107.36 198.81 105.42 196.39 105.42 193.22C105.42 189.72 107.61 187.97 109.86 187.97C110.785 187.987 111.683 188.282 112.438 188.817C113.193 189.352 113.768 190.103 114.09 190.97H114.17C115.06 188.72 116.65 187.33 118.84 187.33C121.98 187.33 124.09 190.03 124.09 193.47C124.04 197.19 121.79 199.52 119.15 199.52ZM119.04 189.8C116.85 189.8 115.79 191.32 115.09 193.8C115.71 195.91 117.09 197.05 118.82 197.05C119.291 197.066 119.759 196.982 120.195 196.803C120.631 196.625 121.024 196.357 121.349 196.016C121.674 195.675 121.923 195.269 122.08 194.825C122.237 194.381 122.298 193.909 122.26 193.44C122.26 191.19 120.9 189.8 119.04 189.8ZM110.04 196.52C111.85 196.52 112.82 195.16 113.37 193.07C113.195 192.318 112.781 191.643 112.189 191.147C111.598 190.651 110.861 190.361 110.09 190.32C109.688 190.3 109.287 190.366 108.913 190.514C108.539 190.663 108.201 190.889 107.922 191.18C107.643 191.47 107.43 191.816 107.297 192.196C107.164 192.575 107.114 192.979 107.15 193.38C107.112 193.778 107.158 194.18 107.285 194.559C107.412 194.938 107.616 195.287 107.885 195.583C108.155 195.878 108.483 196.114 108.849 196.276C109.215 196.437 109.61 196.52 110.01 196.52H110.04Z" fill="white"/>
<path d="M123.74 166.64H118.82V175.04H117.21L105.67 166.98V164.34H116.9V161.81H118.82V164.34H123.74V166.64ZM116.9 166.64H110.9C109.96 166.64 109.01 166.64 108.07 166.56V166.64C109.12 167.2 109.9 167.64 110.73 168.14L116.88 172.56H116.93L116.9 166.64Z" fill="white"/>
<path d="M107.73 138.32V145.19L112.37 145.88C112.299 145.393 112.262 144.902 112.26 144.41C112.243 143.048 112.588 141.705 113.26 140.52C113.726 139.708 114.404 139.038 115.221 138.582C116.038 138.126 116.964 137.9 117.9 137.93C121.43 137.93 124.07 140.74 124.07 144.66C124.109 146.232 123.725 147.786 122.96 149.16L121.1 148.55C121.749 147.366 122.092 146.04 122.1 144.69C122.138 144.148 122.065 143.605 121.887 143.092C121.708 142.579 121.426 142.108 121.06 141.708C120.693 141.307 120.248 140.986 119.753 140.763C119.258 140.539 118.723 140.419 118.18 140.41C115.85 140.41 114.18 141.99 114.18 145.6C114.189 146.437 114.252 147.272 114.37 148.1L105.7 146.94V138.29L107.73 138.32Z" fill="white"/>
<path d="M107.95 51.7799V51.83L109.65 54.97L107.79 55.45L105.67 51.45V49.37H123.74V51.73L107.95 51.7799Z" fill="white"/>
<path d="M107.95 26.6799V26.74L109.65 29.8799L107.79 30.35L105.67 26.35V24.2699H123.74V26.6299L107.95 26.6799Z" fill="white"/>
</svg>
